# xmcd CD database file
#
# Track frame offsets:
#	150
#	15787
#	31350
#	44100
#	56737
#	92275
#	134075
#	153262
#	166875
#	178250
#	208362
#	229887
#
# Disc length: 3551 seconds
#
# Revision: 0
# Processed by: cddbd v1.5.1PL0 Copyright (c) Steve Scherf et al.
# Submitted via: CDex 1.51
#
DISCID=a20ddd0c
DTITLE=Omnibus - Verve Vol.1
DYEAR=1900
DGENRE=Jazz
TTITLE0=Bloom Dido/Charlie Parker
TTITLE1=K.C. Blues/Charlie Parker
TTITLE2=Back Home Blues/Charlie Parker
TTITLE3=Summertime/Charlie Parker
TTITLE4=Bass on Balls/Buddy Defranco
TTITLE5=Blues for Bird/The Modern Jazz Sextet
TTITLE6=Tea for Two/Bud Powell
TTITLE7=Hallelujah/Bud Powell
TTITLE8=Pariseienne Thorofare/Bud Powell
TTITLE9=Like Someone in Love/Tal Farlow
TTITLE10=Taking a Chance of Love/Tal Farlow
TTITLE11=Take the "A" Train/Ray Brown
EXTD=
EXTT0=
EXTT1=
EXTT2=
EXTT3=
EXTT4=
EXTT5=
EXTT6=
EXTT7=
EXTT8=
EXTT9=
EXTT10=
EXTT11=
PLAYORDER=
